<?xml version="1.0" encoding="UTF-8"?>
<svg width="100px" height="114px" viewBox="0 0 100 114" version="1.1" xmlns="http://www.w3.org/2000/svg" xmlns:xlink="http://www.w3.org/1999/xlink">
    <!-- Generator: Sketch 50.2 (55047) - http://www.bohemiancoding.com/sketch -->
    <title>javascript</title>
    <desc>Created with Sketch.</desc>
    <defs></defs>
    <g id="Page-1" stroke="none" stroke-width="1" fill="none" fill-rule="evenodd">
        <g id="javascript" fill-rule="nonzero">
            <path d="M9.28,102.18 L0,0 L100,0 L90.8,102.11 L49.92,113.65 L9.28,102.18 Z M83.28,96.61 L91,9.09 L50.08,9.09 L50.39,105.62 L83.28,96.61 Z M46.28,21.92 L36.31,21.92 L36.19,74.3 L16.89,69 L16.89,81 L46.22,88.91 L46.22,21.91 L46.28,21.92 Z" id="path5113" fill="#D4B830"></path>
            <path d="M43,88 C41.71,87.61 35.36,85.89 28.88,84.14 L17.12,80.93 L17.12,75 C17.12,69.23 17.12,69.11 17.71,69.3 C18.02,69.42 22.31,70.59 27.22,71.96 L36.15,74.41 L36.23,48.28 L36.31,22.15 L46.06,22.15 L46.06,55.42 C46.06,81.83 45.98,88.65 45.71,88.65 C45.44,88.65 44.27,88.3 43,88 Z" id="path5159" fill-opacity="0" fill="#EBEBEB" opacity="0.99"></path>
            <path d="M16.93,81 L16.93,69 C16.93,69 29.25,72.47 36.23,74.27 L36.31,22 L46.26,22 L46.26,89 L16.93,81 Z" id="path5157" fill-opacity="0.92" fill="#EBEBEB" opacity="0.99"></path>
            <path d="M50.08,9.05 L91,9.05 L83.27,96.57 L50.08,105.57 L50.08,9.05 Z M81.16,81.9 L83.85,49.18 L64,51.4 L64,33.93 L85.22,33.85 L86,21.92 L54,22.07 L54.43,65.52 L73.77,62.21 L73.5,71.88 L54,77.07 L54.19,88.92 L81.14,81.92 L81.16,81.9 Z" id="path5117" fill="#FDD83C"></path>
        </g>
    </g>
</svg>