<?xml version="1.0" encoding="UTF-8"?>
<svg width="343px" height="407px" viewBox="0 0 343 407" version="1.1" xmlns="http://www.w3.org/2000/svg" xmlns:xlink="http://www.w3.org/1999/xlink">
    <!-- Generator: Sketch 50.2 (55047) - http://www.bohemiancoding.com/sketch -->
    <title>man-laptop-v2</title>
    <desc>Created with Sketch.</desc>
    <defs>
        <linearGradient x1="49.9983941%" y1="100.002205%" x2="49.9983941%" y2="0.00138359584%" id="linearGradient-1">
            <stop stop-color="#76AADB" offset="0%"></stop>
            <stop stop-color="#4A72B2" offset="100%"></stop>
        </linearGradient>
        <linearGradient x1="3.76945748e-15%" y1="49.9953462%" x2="100%" y2="49.9953462%" id="linearGradient-2">
            <stop stop-color="#2ACAFF" offset="0%"></stop>
            <stop stop-color="#2ADFC3" offset="100%"></stop>
        </linearGradient>
        <linearGradient x1="-0.0309717383%" y1="4732.39915%" x2="100%" y2="4732.39915%" id="linearGradient-3">
            <stop stop-color="#2ACAFF" offset="0%"></stop>
            <stop stop-color="#2ADFC3" offset="100%"></stop>
        </linearGradient>
        <linearGradient x1="0%" y1="49.9999192%" x2="100%" y2="49.9999192%" id="linearGradient-4">
            <stop stop-color="#FFFFFF" offset="0%"></stop>
            <stop stop-color="#F7F7F8" offset="100%"></stop>
        </linearGradient>
        <linearGradient x1="0%" y1="4057.30534%" x2="100.020619%" y2="4057.30534%" id="linearGradient-5">
            <stop stop-color="#FFFFFF" offset="0%"></stop>
            <stop stop-color="#F7F7F8" offset="100%"></stop>
        </linearGradient>
        <linearGradient x1="-0.00216284457%" y1="454.483099%" x2="99.9986022%" y2="454.483099%" id="linearGradient-6">
            <stop stop-color="#2ACAFF" offset="0%"></stop>
            <stop stop-color="#2ADFC3" offset="100%"></stop>
        </linearGradient>
        <linearGradient x1="-0.0102291127%" y1="2570.34623%" x2="100.005564%" y2="2570.34623%" id="linearGradient-7">
            <stop stop-color="#2ACAFF" offset="0%"></stop>
            <stop stop-color="#2ADFC3" offset="100%"></stop>
        </linearGradient>
        <linearGradient x1="0.408260944%" y1="5979.02781%" x2="100.329774%" y2="5979.02781%" id="linearGradient-8">
            <stop stop-color="#2ACAFF" offset="0%"></stop>
            <stop stop-color="#2ADFC3" offset="100%"></stop>
        </linearGradient>
    </defs>
    <g id="Page-1" stroke="none" stroke-width="1" fill="none" fill-rule="evenodd">
        <g id="man-laptop-v2">
            <path d="M59.32,352.86 C59.32,352.86 -20.68,297.51 59.32,221.96 C139.32,146.41 232.24,102.4 290.32,99.86 C348.4,97.32 357.43,236.64 322.58,328.27 C287.73,419.9 169,435.36 59.32,352.86 Z" id="_Path_" fill="url(#linearGradient-1)" fill-rule="nonzero"></path>
            <path d="M237.29,261.81 C237.29,261.81 274.8,307.49 228.29,337.03 L221.03,322.03 C221.03,322.03 237.03,305.31 225.19,284.91 L237.29,261.81 Z" id="_Path_2" fill="#FFCB9C" fill-rule="nonzero"></path>
            <path d="M71.14,261.81 C71.14,261.81 33.63,307.49 80.14,337.03 L87.4,322.03 C87.4,322.03 71.4,305.31 83.24,284.91 L71.14,261.81 Z" id="_Path_3" fill="#FFCB9C" fill-rule="nonzero"></path>
            <path d="M245.93,271.47 C226.83,233.47 191.17,227.79 191.17,227.79 L191.17,228 L179.8,225.25 C155.80022,220.140279 130.909959,221.036823 107.34,227.86 C107.34,227.86 72.46,237.14 57.43,276.91 L79.3,288.86 C77.49,307.76 77.94,331.39 82.7,360.69 C93.92,357.13 106.63,361.84 118.3,362.58 C132.16,363.46 144.58,362.01 158.23,364.03 C183.04,367.68 208.36,366.03 233.36,368.03 C233.7,345.69 232.69,314.27 226.52,284.87 L245.93,271.47 Z" id="_Path_4" fill="url(#linearGradient-2)" fill-rule="nonzero"></path>
            <g id="_Group_2" transform="translate(116.000000, 126.000000)">
                <path d="M80.43,51.84 C79.88,64.78 76.65,76.49 57.23,85.22 C57.23,85.22 47.23,95.22 50.17,108.99 C53.11,122.76 15.52,121.7 21.17,102.68 C26.82,83.66 17.47,61.82 10.65,49.39 C3.83,36.96 6.65,11.05 22.34,2.59 C28.5,-0.71 43.84,0.8 53.85,5.74 C70.65,14 81.22,33.11 80.43,51.84 Z" id="_Path_5" fill="#FFCB9C" fill-rule="nonzero"></path>
                <path d="M14.48,38.26 C11.5733389,36.0696241 7.85323953,35.262019 4.3,36.05 C-1.32,37.52 -2.3,58.11 10.87,61.7 C24.04,65.29 19.31,52.37 19.31,52.37 L14.48,38.26 Z" id="_Path_6" fill="#FFCB9C" fill-rule="nonzero"></path>
                <path d="M81.11,49.63 C80.586895,49.7067749 80.0586971,49.7435482 79.53,49.74 C78.4920305,49.7629822 77.4585384,49.5969457 76.48,49.25 C72.08,51.46 64.59,53.87 57.15,50.01 C45.65,44.01 35.46,43.14 30.09,45.76 C20.84,50.26 10.26,47.84 7.09,33.58 C7.09,33.58 5.8,44.92 12.81,50.91 C19.82,56.9 20.13,66.23 19.11,74 C18.09,81.77 12.54,90.41 19.6,100.18 C26.66,109.95 38.19,100.18 46.85,102.51 C55.51,104.84 74.59,107.24 78.58,91.51 C82.57,75.78 77.41,69.86 78.58,63.32 C79.6,57.74 81.8,54.42 81.11,49.63 Z" id="_Path_7" fill="#191919" fill-rule="nonzero"></path>
                <g id="_Group_3" transform="translate(41.000000, 54.000000)" fill-rule="nonzero">
                    <g id="_Group_4" fill="#CE3E3E">
                        <path d="M13,3.33 C11.3907125,1.98657887 9.5116797,1.00443469 7.49,0.45 C4.81,-0.05 2,0.45 0.87,3.76 C-0.26,7.07 2.6,10.15 6.29,12.94 C8.46,14.52 16.29,17.4 21.05,16.09 C25.81,14.78 28.37,13.48 29.87,10.69 C31.0308199,7.91183363 29.952845,4.70357494 27.35,3.19 C25.4180646,2.2506905 23.1498583,2.31038014 21.27,3.35 C18.7506744,4.9750444 15.5114363,4.96721069 13,3.33 Z" id="_Path_8"></path>
                    </g>
                    <g id="_Group_5" transform="translate(2.000000, 9.000000)" fill="#FF7D7D">
                        <path d="M0.6,0.65 C3.39687693,-0.229700679 6.40334947,-0.180586775 9.17,0.79 C12.7230053,1.80706916 15.7508137,4.14771539 17.63,7.33 C13.7655638,7.60125187 9.89672225,6.86744667 6.4,5.2 C4.12045717,4.18579318 2.12774387,2.62254396 0.6,0.65 Z" id="_Path_9"></path>
                    </g>
                </g>
                <path d="M46.86,31.63 C46.86,33.88 45.92,35.71 44.75,35.71 C43.58,35.71 42.64,33.88 42.64,31.63 C42.64,29.38 43.64,27.56 44.75,27.56 C45.86,27.56 46.86,29.37 46.86,31.63 Z" id="_Path_10" fill="#191919" fill-rule="nonzero"></path>
                <path d="M69.88,34.26 C69.88,36.51 68.93,38.34 67.77,38.34 C66.61,38.34 65.66,36.51 65.66,34.26 C65.66,32.01 66.6,30.19 67.77,30.19 C68.94,30.19 69.88,32 69.88,34.26 Z" id="_Path_11" fill="#191919" fill-rule="nonzero"></path>
                <circle id="_Path_12" stroke="#1D1D1B" stroke-width="2" cx="71.36" cy="31.66" r="12.98"></circle>
                <polygon id="_Path_13" fill="#FF6252" fill-rule="nonzero" points="58.76 20.65 65.63 47.9 51.5 46.32"></polygon>
                <path d="M55.7,29.55 C55.7,36.7297017 49.8797017,42.55 42.7,42.55 C35.5202983,42.55 29.7,36.7297017 29.7,29.55 C29.7,22.3702983 35.5202983,16.55 42.7,16.55 C49.8797017,16.55 55.7,22.3702983 55.7,29.55 Z" id="_Path_14" stroke="#1D1D1B" stroke-width="2"></path>
                <path d="M61.64,23.04 L53.86,23.04" id="_Path_15" stroke="#1D1D1B" stroke-width="2"></path>
                <path d="M30.15,26.03 L5.96,33.58" id="_Path_16" stroke="#1D1D1B" stroke-width="2"></path>
                <path d="M19.05,53.41 C19.0540461,55.9630629 17.5192319,58.2669851 15.1616696,59.2468048 C12.8041073,60.2266245 10.0884253,59.6892389 8.28170387,57.8853807 C6.47498247,56.0815226 5.93329027,53.3666963 6.90936955,51.0075829 C7.88544883,48.6484696 10.1869339,47.1100032 12.74,47.11 C16.2210153,47.1099956 19.0444833,49.9289891 19.05,53.41 Z" id="_Path_17" fill="#191919" fill-rule="nonzero"></path>
                <path d="M21.19,60.85 C21.19,63.8709976 18.7409976,66.32 15.72,66.32 C12.6990024,66.32 10.25,63.8709976 10.25,60.85 C10.25,57.8290024 12.6990024,55.38 15.72,55.38 C17.1715483,55.377339 18.5644108,55.9527864 19.5908122,56.9791878 C20.6172136,58.0055892 21.192661,59.3984517 21.19,60.85 Z" id="_Path_18" fill="#191919" fill-rule="nonzero"></path>
                <path d="M23.09,69.46 C23.09,73.5303386 19.7903386,76.83 15.72,76.83 C11.6496614,76.83 8.35,73.5303386 8.35,69.46 C8.35,65.3896614 11.6496614,62.09 15.72,62.09 C19.7880547,62.0955085 23.0844915,65.3919453 23.09,69.46 Z" id="_Path_19" fill="#191919" fill-rule="nonzero"></path>
                <path d="M23.09,81.4 C23.1065346,85.4702891 19.8203292,88.7833206 15.7500402,88.7998777 C11.6797512,88.8164348 8.36670153,85.5302477 8.35012195,81.4599588 C8.33354237,77.3896699 11.6197111,74.0766021 15.69,74.06 C19.7603386,74.06 23.06,77.3596614 23.06,81.43 L23.09,81.4 Z" id="_Path_20" fill="#191919" fill-rule="nonzero"></path>
                <path d="M26.42,94.54 C26.4280889,97.5258274 24.6362297,100.222338 21.8803923,101.371507 C19.1245549,102.520677 15.9477999,101.896052 13.8322036,99.7890442 C11.7166073,97.6820362 11.0790654,94.5078484 12.2170153,91.7473592 C13.3549652,88.98687 16.0441644,87.1840568 19.03,87.18 C23.0996972,87.1799665 26.4034789,90.4703363 26.42,94.54 Z" id="_Path_21" fill="#191919" fill-rule="nonzero"></path>
                <path d="M34.88,102.61 C34.88,106.685861 31.5758615,109.99 27.5,109.99 C23.4241385,109.99 20.12,106.685861 20.12,102.61 C20.12,98.5341385 23.4241385,95.23 27.5,95.23 C29.4581115,95.2273413 31.3367885,96.004021 32.7213838,97.3886162 C34.105979,98.7732115 34.8826587,100.651888 34.88,102.61 Z" id="_Path_22" fill="#191919" fill-rule="nonzero"></path>
                <path d="M48.94,101.87 C48.9619901,105.938941 45.6822939,109.255821 41.6133633,109.279703 C37.5444327,109.303584 34.2260286,106.02543 34.2002555,101.956511 C34.1744824,97.8875922 37.4510933,94.5676646 41.52,94.54 C43.4771795,94.5240282 45.360115,95.2882806 46.7525147,96.6637914 C48.1449144,98.0393022 48.9320873,99.9127713 48.94,101.87 Z" id="_Path_23" fill="#191919" fill-rule="nonzero"></path>
                <path d="M62.82,104.54 C62.82,108.610339 59.5203386,111.91 55.45,111.91 C51.3796614,111.91 48.08,108.610339 48.08,104.54 C48.08,100.469661 51.3796614,97.17 55.45,97.17 C59.5157783,97.1809887 62.8090113,100.474222 62.82,104.54 Z" id="_Path_24" fill="#191919" fill-rule="nonzero"></path>
                <path d="M76.75,100.21 C76.7982831,103.196211 75.0419766,105.917136 72.3008173,107.102814 C69.5596581,108.288491 66.3741034,107.705149 64.2309762,105.625055 C62.0878489,103.544961 61.4096962,100.378234 62.5130384,97.6029106 C63.6163806,94.8275869 66.2836785,92.9908592 69.27,92.95 L69.37,92.95 C73.3994547,92.9494673 76.6844804,96.1810779 76.75,100.21 Z" id="_Path_25" fill="#191919" fill-rule="nonzero"></path>
                <circle id="_Path_26" fill="#191919" fill-rule="nonzero" cx="76.15" cy="89.82" r="7.37"></circle>
                <path d="M87.84,76.84 C87.84,80.9158615 84.5358615,84.22 80.46,84.22 C76.3841385,84.22 73.08,80.9158615 73.08,76.84 C73.08,72.7641385 76.3841385,69.46 80.46,69.46 C84.5202554,69.4709886 87.8090114,72.7597446 87.82,76.82 L87.84,76.84 Z" id="_Path_27" fill="#191919" fill-rule="nonzero"></path>
                <path d="M86.84,64.23 C86.84,68.3003386 83.5403386,71.6 79.47,71.6 C75.3996614,71.6 72.1,68.3003386 72.1,64.23 C72.1,60.1596614 75.3996614,56.86 79.47,56.86 C83.5357783,56.8709887 86.8290113,60.1642217 86.84,64.23 Z" id="_Path_28" fill="#191919" fill-rule="nonzero"></path>
                <path d="M87.21,55.32 C87.4210667,58.3018206 85.8149618,61.1171252 83.1407389,62.4529151 C80.4665159,63.7887051 77.25093,63.381863 74.9936627,61.4221316 C72.7363954,59.4624001 71.8820719,56.3357974 72.8291308,53.5005051 C73.7761896,50.6652127 76.3380839,48.6797126 79.32,48.47 L79.85,48.47 C83.7718099,48.3349908 87.0635148,51.398602 87.21,55.32 Z" id="_Path_29" fill="#191919" fill-rule="nonzero"></path>
            </g>
            <g id="_Group_6" transform="translate(75.000000, 242.000000)" fill-rule="nonzero">
                <rect id="_Path_30" fill="#AFAFAF" x="2.23" y="107.36" width="161.3" height="7.51" rx="3.5"></rect>
                <rect id="_Path_31" fill="#D8D8D8" x="0.11" y="0.29" width="165.6" height="111.27" rx="11.36"></rect>
                <path d="M93.55,55.93 C93.562137,60.2797681 90.9517753,64.2081692 86.936981,65.8821037 C82.9221868,67.5560382 78.2942972,66.6455648 75.2128124,63.5755353 C72.1313276,60.5055058 71.2036245,55.8810393 72.8625948,51.8600385 C74.521565,47.8390378 78.4402169,45.2140632 82.79,45.21 C85.6348538,45.1993737 88.3672656,46.3199898 90.385449,48.3250438 C92.4036325,50.3300978 93.5420584,53.0551375 93.55,55.9 L93.55,55.93 Z" id="_Path_32" fill="#FFFFFF"></path>
                <path d="M3.23,3.37 L163.6,107.37 C164.71063,105.794178 165.421073,103.97174 165.67,102.06 L165.67,10.38 C165.481706,8.08161506 164.618972,5.88999119 163.19,4.08 C161.503595,2.07276746 159.128493,0.767531335 156.53,0.42 C155.74,0.42 154.95,0.33 154.15,0.33 L10.63,0.33 C8.71519327,0.378247068 6.84510263,0.918954677 5.2,1.9 C4.52,2.36 3.86,2.85 3.23,3.37 Z" id="_Path_33" fill="#F5F5F5" opacity="0.57"></path>
            </g>
            <path d="M226.2,379.73 C224.211948,388.767825 221.28263,397.572537 217.46,406 C217.46,406 180.21,411.22 129,392.1 C129,392.1 105.06,381.72 101.79,379.73 L226.2,379.73 Z" id="_Path_34" fill="#191919" fill-rule="nonzero"></path>
            <path d="M230.93,379.73 L230.25,384.98 C230.157385,385.772349 229.753002,386.495182 229.126243,386.988708 C228.499484,387.482233 227.701969,387.705805 226.91,387.61 L226.77,387.61 C217.9,386.04 191.31,382.33 165.56,386.84 C134.05,392.35 117.78,387.63 117.78,387.63 C117.78,387.63 106.33,382.21 101.78,379.75 L230.93,379.73 Z" id="_Path_35" fill="url(#linearGradient-3)" fill-rule="nonzero"></path>
            <g id="_Clip_Group_2" transform="translate(54.000000, 356.000000)" fill-rule="nonzero">
                <g id="Group">
                    <path d="M0.47,0.86 L230.76,0.86 C230.76,7.17813754 225.638138,12.3 219.32,12.3 L13.74,12.3 C7.10318624,12.3109778 1.47243711,7.43099524 0.54,0.86 L0.47,0.86 Z" id="_Path_36" fill="url(#linearGradient-4)"></path>
                    <path d="M10.71,12.3 L204.71,12.3 C204.704481,18.6142319 199.584234,23.7300024 193.27,23.73 L23.93,23.73 C17.2969161,23.7300695 11.6682225,18.8635061 10.71,12.3 Z" id="_Path_37" fill="url(#linearGradient-5)"></path>
                </g>
            </g>
            <g id="_Group_7" transform="translate(230.000000, 121.000000)" stroke="#141414">
                <circle id="_Path_38" stroke-width="3" fill="#FFFFFF" fill-rule="nonzero" cx="43.87" cy="43.51" r="42.91"></circle>
                <polyline id="_Path_39" fill="#FFFFFF" fill-rule="nonzero" stroke-linecap="round" stroke-linejoin="round" points="43.84 16.15 43.84 43.53 65.26 43.53"></polyline>
                <path d="M43.84,5.37 L43.84,9.04" id="_Path_40" stroke-linecap="round" stroke-linejoin="round"></path>
                <path d="M56.8,7.64 L55.56,11.09" id="_Path_41" stroke-linecap="round" stroke-linejoin="round"></path>
                <path d="M68.24,14.19 L65.88,17.01" id="_Path_42" stroke-linecap="round" stroke-linejoin="round"></path>
                <path d="M76.75,24.23 L73.58,26.09" id="_Path_43" stroke-linecap="round" stroke-linejoin="round"></path>
                <path d="M81.35,36.56 L77.72,37.24" id="_Path_44" stroke-linecap="round" stroke-linejoin="round"></path>
                <path d="M81.47,49.73 L77.83,49.13" id="_Path_45" stroke-linecap="round" stroke-linejoin="round"></path>
                <path d="M77.11,62.16 L73.9,60.36" id="_Path_46" stroke-linecap="round" stroke-linejoin="round"></path>
                <path d="M68.78,72.35 L66.38,69.58" id="_Path_47" stroke-linecap="round" stroke-linejoin="round"></path>
                <path d="M57.48,79.11 L56.17,75.68" id="_Path_48" stroke-linecap="round" stroke-linejoin="round"></path>
                <path d="M44.56,81.63 L44.49,77.96" id="_Path_49" stroke-linecap="round" stroke-linejoin="round"></path>
                <path d="M31.55,79.6 L32.73,76.12" id="_Path_50" stroke-linecap="round" stroke-linejoin="round"></path>
                <path d="M20.01,73.27 L22.31,70.4" id="_Path_51" stroke-linecap="round" stroke-linejoin="round"></path>
                <path d="M11.31,63.39 L14.45,61.47" id="_Path_52" stroke-linecap="round" stroke-linejoin="round"></path>
                <path d="M6.47,51.13 L10.08,50.41" id="_Path_53" stroke-linecap="round" stroke-linejoin="round"></path>
                <path d="M6.11,37.98 L9.75,38.52" id="_Path_54" stroke-linecap="round" stroke-linejoin="round"></path>
                <path d="M10.24,25.47 L13.48,27.21" id="_Path_55" stroke-linecap="round" stroke-linejoin="round"></path>
                <path d="M18.37,15.12 L20.83,17.86" id="_Path_56" stroke-linecap="round" stroke-linejoin="round"></path>
                <path d="M29.54,8.15 L30.92,11.56" id="_Path_57" stroke-linecap="round" stroke-linejoin="round"></path>
            </g>
            <g id="_Group_8" fill-rule="nonzero">
                <path d="M68.78,14.63 C63.7554391,15.2847497 58.7783277,13.1209553 55.83,9 C53.2,5.41 47.83,0.84 39.48,5.42 C26.87,12.36 24.84,19.62 12.24,22.11 C-0.36,24.6 -3.35,34.3 3.83,41.63 C11.01,48.96 12.24,57.06 8.55,63.57 C4.86,70.08 2.85,86.74 15.75,88 C28.65,89.26 36.23,86.79 39.89,97 C43.55,107.21 58.1,119.83 75.82,109.19 C93.54,98.55 111.23,108.8 117.95,107.52 C121.562474,106.890509 124.776281,104.850148 126.882891,101.848745 C128.989501,98.8473412 129.815937,95.131345 129.18,91.52 L129.18,91.46 C129.15237,91.16835 129.095415,90.8802274 129.01,90.6 C127.21,81.41 130.22,72.2 137.06,67.83 C137.06,67.83 145.36,65.47 147.37,54.99 C149.38,44.51 147.6,33.09 132,27.81 C116.4,22.53 120.71,10.48 107,3.52 C93.29,-3.44 83.33,1.32 79.47,5.85 C76.42,9.46 74,13.85 68.78,14.63 Z" id="_Path_58" fill="url(#linearGradient-6)"></path>
                <path d="M92.14,117.93 C90.9619943,121.580285 87.6944074,124.156424 83.87,124.45 C77.19,125.1 77.82,134.33 86.09,133.05 C94.36,131.77 96.59,134.05 99.3,134.33 C102.01,134.61 106.14,133.84 106.47,128.91 C106.8,123.98 102.64,124.29 99.78,124.18 C96.92,124.07 99.62,118.78 97.87,117.18 C96.3116137,115.779862 93.9140191,115.905109 92.51,117.46 C92.3779497,117.609604 92.2544212,117.766518 92.14,117.93 Z" id="_Path_59" fill="url(#linearGradient-7)"></path>
                <path d="M106.82,149.42 C105.979395,148.844059 104.944343,148.625843 103.942772,148.813403 C102.941201,149.000963 102.055245,149.578919 101.48,150.42 C101.000426,151.117385 100.768083,151.955227 100.82,152.8 L100.82,153.19 C100.97,157.92 104.94,156.06 106.91,156.34 C108.88,156.62 109.91,154.39 109.91,152.5 C109.91,150.61 108.33,150.92 107.14,149.65 L106.82,149.42 Z" id="_Path_60" fill="url(#linearGradient-8)"></path>
            </g>
            <g id="_Group_9" transform="translate(42.000000, 22.000000)" fill="#FFFFFF" fill-rule="nonzero">
                <path d="M34.51,58.86 L38.73,58.69 L38.45,51.92 L34.04,52.12 C33.5734941,50.5839655 32.8645581,49.1323346 31.94,47.82 L34.87,44.82 L30,40 L26.94,43.15 C25.536392,42.3694879 24.0225035,41.8064158 22.45,41.48 L22.45,37.38 L15.67,37.38 L15.67,41.8 C13.776644,42.2961162 11.9949657,43.1479281 10.42,44.31 L7.27,41.31 L2.66,46.31 L6.06,49.46 C5.08820971,51.3521836 4.50347616,53.4191486 4.34,55.54 L0.15,56 L1,62.76 L5.38,62.19 C5.97928138,63.6805835 6.8094392,65.0675545 7.84,66.3 L5.24,69.59 L10.51,73.83 L13.11,70.4 C14.5676801,71.079974 16.129569,71.5093244 17.73,71.67 L18.09,75.88 L24.83,75.29 L24.52,71 C26.0301153,70.4746308 27.4451204,69.708029 28.71,68.73 L31.86,71.52 L36.34,66.43 L33,63.46 C33.7510808,62.0193823 34.2611645,60.4654851 34.51,58.86 Z M19.31,62.17 C15.8306061,62.17 13.01,59.3493939 13.01,55.87 C13.01,52.3906061 15.8306061,49.57 19.31,49.57 C22.7893939,49.57 25.61,52.3906061 25.61,55.87 C25.61,59.3493939 22.7893939,62.17 19.31,62.17 Z" id="_Compound_Path_"></path>
                <path d="M73.15,40.42 L77.39,40.25 L77.1,33.47 L72.69,33.68 C72.22917,32.143575 71.5234323,30.6915788 70.6,29.38 L73.53,26.32 L68.63,21.59 L65.63,24.75 C64.229608,23.9625305 62.7146157,23.3990478 61.14,23.08 L61.14,19 L54.33,19 L54.33,23.43 C52.4356805,23.9184218 50.653198,24.767223 49.08,25.93 L45.93,22.93 L41.33,27.86 L44.73,31 C43.7594231,32.8895889 43.1908095,34.9597513 43.06,37.08 L38.86,37.63 L39.74,44.34 L44.12,43.77 C44.7122474,45.2597352 45.5356924,46.6467677 46.56,47.88 L43.91,51.18 L49.19,55.41 L51.84,52 C53.2880249,52.6888006 54.8443144,53.1218551 56.44,53.28 L56.8,57.49 L63.54,56.81 L63.15,52.41 C64.6615727,51.8854865 66.0794924,51.1225106 67.35,50.15 L70.5,53 L75,47.89 L71.65,45 C72.3990655,43.5664639 72.9059034,42.0189189 73.15,40.42 Z M58,43.73 C55.4469339,43.7299968 53.1454488,42.1915304 52.1693696,39.8324171 C51.1932903,37.4733037 51.7349825,34.7584774 53.5417039,32.9546193 C55.3484253,31.1507611 58.0641073,30.6133755 60.4216696,31.5931952 C62.7792319,32.5730149 64.3140461,34.8769371 64.31,37.43 C64.3100021,39.1025979 63.6448815,40.7065449 62.4612386,41.888312 C61.2775957,43.070079 59.6725958,43.7326549 58,43.73 Z" id="_Compound_Path_2"></path>
                <path d="M38.23,20.54 L42.43,19.96 L41.49,13.21 L37.12,13.83 C36.5021077,12.352237 35.6587501,10.9792509 34.62,9.76 L37.23,6.44 L31.91,2.25 L29.19,5.73 C27.7143402,5.08798378 26.1499162,4.67327657 24.55,4.5 L24.16,0.31 L17.42,1 L17.86,5.4 C16.0177089,6.07291348 14.3207077,7.09111422 12.86,8.4 L9.36,5.72 L5.25,11.11 L9,13.91 C8.17999666,15.9056151 7.79805474,18.0540384 7.88,20.21 L3.72,21.09 L5.3,27.67 L9.6,26.67 C10.3338796,28.1000485 11.2965713,29.4005268 12.45,30.52 L10.13,34.06 L15.76,37.86 L18.18,34.15 C19.6983542,34.6911229 21.2981033,34.9684578 22.91,34.97 L23.68,39.13 L30.31,37.86 L29.51,33.51 C30.9824979,32.8528858 32.3345354,31.9537809 33.51,30.85 L36.96,33.3 L40.9,27.81 L37.31,25.25 C37.8781449,23.7425644 38.1891353,22.1504287 38.23,20.54 Z M23.44,25.26 C20.9050225,25.5217498 18.4620307,24.230485 17.2504468,21.9884572 C16.038863,19.7464294 16.2973552,16.9952923 17.9053615,15.0181884 C19.5133679,13.0410846 22.1541296,12.2274806 24.5959837,12.9568452 C27.0378378,13.6862097 28.7997671,15.8148663 29.06,18.35 C29.2332781,20.0120173 28.7380933,21.6746759 27.6837213,22.9710657 C26.6293493,24.2674554 25.1024591,25.0910136 23.44,25.26 Z" id="_Compound_Path_3"></path>
            </g>
        </g>
    </g>
</svg>