<svg width="100" height="114" xmlns="http://www.w3.org/2000/svg"><g fill="none"><path fill="#264DE4" d="M49.94 113.41L9.1 102.07 0 0h100l-9.11 102.06z"/><path fill="#2965F1" d="M83.09 95.56l7.79-87.21H50v96.38z"/><path d="M20.86 46.2L22 58.72h28V46.2H20.86zm-2.25-25.33l1.14 12.51H50V20.87H18.61zM50 78.72L36 75l-.89-10H22.54l1.76 19.64 25.64 7.12H50V78.72z" fill="#EBEBEB"/><path fill="#FFF" d="M79.06 46.2l2.26-25.33H50v12.51h17.6L66.46 46.2H50v12.52h15.37L63.92 75 50 78.73v13l25.66-7.11.19-2.12 2.94-32.95.31-3.37z"/></g></svg>