<svg width="100" height="114" xmlns="http://www.w3.org/2000/svg"><g fill="none"><path fill="#E44D26" d="M100 0l-9.11 102.06-40.95 11.35L9.1 102.07 0 0z"/><path fill="#F16529" d="M50 104.73l33.09-9.17 7.79-87.21H50z"/><path d="M32.29 33.38H50V20.87H18.61l.3 3.35L22 58.72h28V46.2H33.43l-1.14-12.82zM35.11 65H22.54l1.76 19.64 25.64 7.12H50v-13L36 75l-.89-10z" fill="#EBEBEB"/><path d="M50 58.72h15.37L63.92 75 50 78.73v13l25.66-7.11.19-2.12 2.94-32.95.31-3.37H50v12.54zm0-25.37h30.2l.25-2.81.55-6.32.3-3.35H50v12.48z" fill="#FFF"/></g></svg>