<svg width="100" height="114" xmlns="http://www.w3.org/2000/svg"><g fill="none"><path d="M9.28 102.18L0 0h100l-9.2 102.11-40.88 11.54-40.64-11.47zm74-5.57L91 9.09H50.08l.31 96.53 32.89-9.01zm-37-74.69h-9.97l-.12 52.38-19.3-5.3v12l29.33 7.91v-67l.06.01z" fill="#D4B830"/><path d="M43 88c-1.29-.39-7.64-2.11-14.12-3.86l-11.76-3.21V75c0-5.77 0-5.89.59-5.7.31.12 4.6 1.29 9.51 2.66l8.93 2.45.08-26.13.08-26.13h9.75v33.27c0 26.41-.08 33.23-.35 33.23-.27 0-1.44-.35-2.71-.65z" opacity=".99"/><path d="M16.93 81V69s12.32 3.47 19.3 5.27L36.31 22h9.95v67l-29.33-8z" fill-opacity=".92" fill="#EBEBEB" opacity=".99"/><path d="M50.08 9.05H91l-7.73 87.52-33.19 9V9.05zM81.16 81.9l2.69-32.72L64 51.4V33.93l21.22-.08.78-11.93-32 .15.43 43.45 19.34-3.31-.27 9.67L54 77.07l.19 11.85 26.95-7 .02-.02z" fill="#FDD83C"/></g></svg>