<svg width="343" height="407" xmlns="http://www.w3.org/2000/svg"><defs><linearGradient x1="49.998%" y1="100.002%" x2="49.998%" y2=".001%" id="a"><stop stop-color="#76AADB" offset="0%"/><stop stop-color="#4A72B2" offset="100%"/></linearGradient><linearGradient x1="0%" y1="49.995%" x2="100%" y2="49.995%" id="b"><stop stop-color="#2ACAFF" offset="0%"/><stop stop-color="#2ADFC3" offset="100%"/></linearGradient><linearGradient x1="-.031%" y1="4732.399%" x2="100%" y2="4732.399%" id="c"><stop stop-color="#2ACAFF" offset="0%"/><stop stop-color="#2ADFC3" offset="100%"/></linearGradient><linearGradient x1="0%" y1="50%" x2="100%" y2="50%" id="d"><stop stop-color="#FFF" offset="0%"/><stop stop-color="#F7F7F8" offset="100%"/></linearGradient><linearGradient x1="0%" y1="4057.305%" x2="100.021%" y2="4057.305%" id="e"><stop stop-color="#FFF" offset="0%"/><stop stop-color="#F7F7F8" offset="100%"/></linearGradient><linearGradient x1="-.002%" y1="454.483%" x2="99.999%" y2="454.483%" id="f"><stop stop-color="#2ACAFF" offset="0%"/><stop stop-color="#2ADFC3" offset="100%"/></linearGradient><linearGradient x1="-.01%" y1="2570.346%" x2="100.006%" y2="2570.346%" id="g"><stop stop-color="#2ACAFF" offset="0%"/><stop stop-color="#2ADFC3" offset="100%"/></linearGradient><linearGradient x1=".408%" y1="5979.028%" x2="100.33%" y2="5979.028%" id="h"><stop stop-color="#2ACAFF" offset="0%"/><stop stop-color="#2ADFC3" offset="100%"/></linearGradient></defs><g fill="none" fill-rule="evenodd"><path d="M59.32 352.86s-80-55.35 0-130.9c80-75.55 172.92-119.56 231-122.1 58.08-2.54 67.11 136.78 32.26 228.41S169 435.36 59.32 352.86z" fill="url(#a)" fill-rule="nonzero"/><path d="M237.29 261.81s37.51 45.68-9 75.22l-7.26-15s16-16.72 4.16-37.12l12.1-23.1zm-166.15 0s-37.51 45.68 9 75.22l7.26-15s-16-16.72-4.16-37.12l-12.1-23.1z" fill="#FFCB9C" fill-rule="nonzero"/><path d="M245.93 271.47c-19.1-38-54.76-43.68-54.76-43.68v.21l-11.37-2.75a149 149 0 0 0-72.46 2.61s-34.88 9.28-49.91 49.05l21.87 11.95c-1.81 18.9-1.36 42.53 3.4 71.83 11.22-3.56 23.93 1.15 35.6 1.89 13.86.88 26.28-.57 39.93 1.45 24.81 3.65 50.13 2 75.13 4 .34-22.34-.67-53.76-6.84-83.16l19.41-13.4z" fill="url(#b)" fill-rule="nonzero"/><g transform="translate(116 126)"><path d="M80.43 51.84c-.55 12.94-3.78 24.65-23.2 33.38 0 0-10 10-7.06 23.77 2.94 13.77-34.65 12.71-29-6.31 5.65-19.02-3.7-40.86-10.52-53.29-6.82-12.43-4-38.34 11.69-46.8C28.5-.71 43.84.8 53.85 5.74c16.8 8.26 27.37 27.37 26.58 46.1z" fill="#FFCB9C" fill-rule="nonzero"/><path d="M14.48 38.26A12.44 12.44 0 0 0 4.3 36.05c-5.62 1.47-6.6 22.06 6.57 25.65s8.44-9.33 8.44-9.33l-4.83-14.11z" fill="#FFCB9C" fill-rule="nonzero"/><path d="M81.11 49.63a10.4 10.4 0 0 1-1.58.11 8.56 8.56 0 0 1-3.05-.49c-4.4 2.21-11.89 4.62-19.33.76-11.5-6-21.69-6.87-27.06-4.25-9.25 4.5-19.83 2.08-23-12.18 0 0-1.29 11.34 5.72 17.33 7.01 5.99 7.32 15.32 6.3 23.09-1.02 7.77-6.57 16.41.49 26.18 7.06 9.77 18.59 0 27.25 2.33s27.74 4.73 31.73-11c3.99-15.73-1.17-21.65 0-28.19 1.02-5.58 3.22-8.9 2.53-13.69z" fill="#191919" fill-rule="nonzero"/><g fill-rule="nonzero"><path d="M54 57.33a14.64 14.64 0 0 0-5.51-2.88c-2.68-.5-5.49 0-6.62 3.31s1.73 6.39 5.42 9.18c2.17 1.58 10 4.46 14.76 3.15s7.32-2.61 8.82-5.4a6 6 0 0 0-2.52-7.5 6.6 6.6 0 0 0-6.08.16 7.6 7.6 0 0 1-8.27-.02z" fill="#CE3E3E"/><path d="M43.6 63.65a13.58 13.58 0 0 1 8.57.14 14.44 14.44 0 0 1 8.46 6.54A22.44 22.44 0 0 1 49.4 68.2a15.1 15.1 0 0 1-5.8-4.55z" fill="#FF7D7D"/></g><path d="M46.86 31.63c0 2.25-.94 4.08-2.11 4.08s-2.11-1.83-2.11-4.08 1-4.07 2.11-4.07c1.11 0 2.11 1.81 2.11 4.07zm23.02 2.63c0 2.25-.95 4.08-2.11 4.08s-2.11-1.83-2.11-4.08.94-4.07 2.11-4.07 2.11 1.81 2.11 4.07z" fill="#191919" fill-rule="nonzero"/><circle stroke="#1D1D1B" stroke-width="2" cx="71.36" cy="31.66" r="12.98"/><path fill="#FF6252" fill-rule="nonzero" d="M58.76 20.65l6.87 27.25-14.13-1.58z"/><path d="M55.7 29.55c0 7.18-5.82 13-13 13s-13-5.82-13-13 5.82-13 13-13 13 5.82 13 13zm5.94-6.51h-7.78m-23.71 2.99L5.96 33.58" stroke="#1D1D1B" stroke-width="2"/><path d="M19.05 53.41a6.31 6.31 0 1 1-12.62.02 6.31 6.31 0 0 1 12.62-.02z" fill="#191919" fill-rule="nonzero"/><path d="M21.19 60.85a5.47 5.47 0 1 1-5.47-5.47 5.46 5.46 0 0 1 5.47 5.47z" fill="#191919" fill-rule="nonzero"/><path d="M23.09 69.46a7.37 7.37 0 1 1-7.37-7.37 7.38 7.38 0 0 1 7.37 7.37z" fill="#191919" fill-rule="nonzero"/><path d="M23.09 81.4a7.37 7.37 0 1 1-7.4-7.34c4.07 0 7.37 3.3 7.37 7.37l.03-.03z" fill="#191919" fill-rule="nonzero"/><path d="M26.42 94.54a7.38 7.38 0 1 1-7.39-7.36 7.39 7.39 0 0 1 7.39 7.36z" fill="#191919" fill-rule="nonzero"/><path d="M34.88 102.61a7.38 7.38 0 1 1-7.38-7.38 7.37 7.37 0 0 1 7.38 7.38z" fill="#191919" fill-rule="nonzero"/><path d="M48.94 101.87a7.37 7.37 0 1 1-7.42-7.33 7.36 7.36 0 0 1 7.42 7.33z" fill="#191919" fill-rule="nonzero"/><path d="M62.82 104.54a7.37 7.37 0 1 1-7.37-7.37 7.39 7.39 0 0 1 7.37 7.37z" fill="#191919" fill-rule="nonzero"/><path d="M76.75 100.21a7.38 7.38 0 1 1-7.48-7.26h.1a7.38 7.38 0 0 1 7.38 7.26z" fill="#191919" fill-rule="nonzero"/><circle fill="#191919" fill-rule="nonzero" cx="76.15" cy="89.82" r="7.37"/><path d="M87.84 76.84a7.38 7.38 0 1 1-7.38-7.38 7.38 7.38 0 0 1 7.36 7.36l.02.02z" fill="#191919" fill-rule="nonzero"/><path d="M86.84 64.23a7.37 7.37 0 1 1-7.37-7.37 7.39 7.39 0 0 1 7.37 7.37z" fill="#191919" fill-rule="nonzero"/><path d="M87.21 55.32a7.39 7.39 0 1 1-7.89-6.85h.53a7.12 7.12 0 0 1 7.36 6.85z" fill="#191919" fill-rule="nonzero"/></g><g transform="translate(75 242)" fill-rule="nonzero"><rect fill="#AFAFAF" x="2.23" y="107.36" width="161.3" height="7.51" rx="3.5"/><rect fill="#D8D8D8" x=".11" y=".29" width="165.6" height="111.27" rx="11.36"/><path d="M93.55 55.93a10.75 10.75 0 1 1-10.76-10.72A10.72 10.72 0 0 1 93.55 55.9v.03z" fill="#FFF"/><path d="M3.23 3.37l160.37 104a11.88 11.88 0 0 0 2.07-5.31V10.38a11.71 11.71 0 0 0-2.48-6.3 10.52 10.52 0 0 0-6.66-3.66c-.79 0-1.58-.09-2.38-.09H10.63A11.15 11.15 0 0 0 5.2 1.9c-.68.46-1.34.95-1.97 1.47z" fill="#F5F5F5" opacity=".57"/></g><path d="M226.2 379.73a132.51 132.51 0 0 1-8.74 26.27s-37.25 5.22-88.46-13.9c0 0-23.94-10.38-27.21-12.37H226.2z" fill="#191919" fill-rule="nonzero"/><path d="M230.93 379.73l-.68 5.25a3 3 0 0 1-3.34 2.63h-.14c-8.87-1.57-35.46-5.28-61.21-.77-31.51 5.51-47.78.79-47.78.79s-11.45-5.42-16-7.88l129.15-.02z" fill="url(#c)" fill-rule="nonzero"/><g fill-rule="nonzero"><path d="M.47.86h230.29c0 6.318-5.122 11.44-11.44 11.44H13.74A13.31 13.31 0 0 1 .54.86H.47z" fill="url(#d)" transform="translate(54 356)"/><path d="M10.71 12.3h194c-.006 6.314-5.126 11.43-11.44 11.43H23.93A13.36 13.36 0 0 1 10.71 12.3z" fill="url(#e)" transform="translate(54 356)"/></g><g transform="translate(230 121)" stroke="#141414"><circle stroke-width="3" fill="#FFF" fill-rule="nonzero" cx="43.87" cy="43.51" r="42.91"/><path fill="#FFF" fill-rule="nonzero" stroke-linecap="round" stroke-linejoin="round" d="M43.84 16.15v27.38h21.42"/><path d="M43.84 5.37v3.67m12.96-1.4l-1.24 3.45m12.68 3.1l-2.36 2.82m10.87 7.22l-3.17 1.86m7.77 10.47l-3.63.68m3.75 12.49l-3.64-.6m-.72 13.03l-3.21-1.8m-5.12 11.99l-2.4-2.77m-8.9 9.53l-1.31-3.43m-11.61 5.95l-.07-3.67M31.55 79.6l1.18-3.48m-12.72-2.85l2.3-2.87m-11-7.01l3.14-1.92M6.47 51.13l3.61-.72M6.11 37.98l3.64.54m.49-13.05l3.24 1.74m4.89-12.09l2.46 2.74m8.71-9.71l1.38 3.41" stroke-linecap="round" stroke-linejoin="round"/></g><g fill-rule="nonzero"><path d="M68.78 14.63A13.74 13.74 0 0 1 55.83 9c-2.63-3.59-8-8.16-16.35-3.58-12.61 6.94-14.64 14.2-27.24 16.69C-.36 24.6-3.35 34.3 3.83 41.63s8.41 15.43 4.72 21.94c-3.69 6.51-5.7 23.17 7.2 24.43 12.9 1.26 20.48-1.21 24.14 9s18.21 22.83 35.93 12.19c17.72-10.64 35.41-.39 42.13-1.67a13.81 13.81 0 0 0 11.23-16v-.06a4.36 4.36 0 0 0-.17-.86c-1.8-9.19 1.21-18.4 8.05-22.77 0 0 8.3-2.36 10.31-12.84s.23-21.9-15.37-27.18c-15.6-5.28-11.29-17.33-25-24.29-13.71-6.96-23.67-2.2-27.53 2.33-3.05 3.61-5.47 8-10.69 8.78z" fill="url(#f)"/><path d="M92.14 117.93a9.45 9.45 0 0 1-8.27 6.52c-6.68.65-6.05 9.88 2.22 8.6 8.27-1.28 10.5 1 13.21 1.28 2.71.28 6.84-.49 7.17-5.42.33-4.93-3.83-4.62-6.69-4.73-2.86-.11-.16-5.4-1.91-7a3.8 3.8 0 0 0-5.36.28 5.32 5.32 0 0 0-.37.47z" fill="url(#g)"/><path d="M106.82 149.42a3.84 3.84 0 0 0-5.34 1 3.79 3.79 0 0 0-.66 2.38v.39c.15 4.73 4.12 2.87 6.09 3.15 1.97.28 3-1.95 3-3.84s-1.58-1.58-2.77-2.85l-.32-.23z" fill="url(#h)"/></g><g fill="#FFF" fill-rule="nonzero"><path d="M76.51 80.86l4.22-.17-.28-6.77-4.41.2a15.07 15.07 0 0 0-2.1-4.3l2.93-3L72 62l-3.06 3.15a15.88 15.88 0 0 0-4.49-1.67v-4.1h-6.78v4.42a15.43 15.43 0 0 0-5.25 2.51l-3.15-3-4.61 5 3.4 3.15a16 16 0 0 0-1.72 6.08l-4.19.46.85 6.76 4.38-.57a15.31 15.31 0 0 0 2.46 4.11l-2.6 3.29 5.27 4.24 2.6-3.43a14.31 14.31 0 0 0 4.62 1.27l.36 4.21 6.74-.59-.31-4.29a14.8 14.8 0 0 0 4.19-2.27l3.15 2.79 4.48-5.09L75 85.46a14.88 14.88 0 0 0 1.51-4.6zm-15.2 3.31a6.3 6.3 0 1 1 0-12.6 6.3 6.3 0 0 1 0 12.6zm53.84-21.75l4.24-.17-.29-6.78-4.41.21a14.91 14.91 0 0 0-2.09-4.3l2.93-3.06-4.9-4.73-3 3.16a15.4 15.4 0 0 0-4.49-1.67V41h-6.81v4.43a15.23 15.23 0 0 0-5.25 2.5l-3.15-3-4.6 4.93 3.4 3.14a15.38 15.38 0 0 0-1.67 6.08l-4.2.55.88 6.71 4.38-.57a15.25 15.25 0 0 0 2.44 4.11l-2.65 3.3 5.28 4.23L93.84 74a13.9 13.9 0 0 0 4.6 1.28l.36 4.21 6.74-.68-.39-4.4a15 15 0 0 0 4.2-2.26L112.5 75l4.5-5.11-3.35-2.89a14.67 14.67 0 0 0 1.5-4.58zM100 65.73a6.31 6.31 0 1 1 6.31-6.3 6.3 6.3 0 0 1-6.31 6.3z"/><path d="M80.23 42.54l4.2-.58-.94-6.75-4.37.62a15.49 15.49 0 0 0-2.5-4.07l2.61-3.32-5.32-4.19-2.72 3.48a15.93 15.93 0 0 0-4.64-1.23l-.39-4.19-6.74.69.44 4.4a15.42 15.42 0 0 0-5 3l-3.5-2.68-4.11 5.39 3.75 2.8a15.07 15.07 0 0 0-1.12 6.3l-4.16.88 1.58 6.58 4.3-1a14.75 14.75 0 0 0 2.85 3.85l-2.32 3.54 5.63 3.8 2.42-3.71a14.13 14.13 0 0 0 4.73.82l.77 4.16 6.63-1.27-.8-4.35a14.44 14.44 0 0 0 4-2.66l3.45 2.45 3.94-5.49-3.59-2.56c.568-1.507.88-3.1.92-4.71zm-14.79 4.72a6.3 6.3 0 1 1 5.62-6.91 6.29 6.29 0 0 1-5.62 6.91z"/></g></g></svg>