<svg width="26" height="26" xmlns="http://www.w3.org/2000/svg"><g fill="#FFF"><path d="M15.3 11.32a2.82 2.82 0 0 0-4.62 0 2.92 2.92 0 0 0-.54 1.68 2.85 2.85 0 0 0 5.7 0 2.92 2.92 0 0 0-.54-1.68z"/><path d="M17.09 11.34a4 4 0 0 1 .33 1.66 4.43 4.43 0 0 1-8.86 0 3.91 3.91 0 0 1 .33-1.65h-2.5V18A1.68 1.68 0 0 0 8 19.59h10A1.68 1.68 0 0 0 19.59 18v-6.66h-2.5zm1.75-4.58h-2.39v2.75h2.73V6.74z"/><path d="M19.46 0H6.52A6.53 6.53 0 0 0 0 6.52v13A6.53 6.53 0 0 0 6.52 26h13A6.53 6.53 0 0 0 26 19.46V6.52A6.56 6.56 0 0 0 19.46 0zM21 11.32V18a3 3 0 0 1-3 3H8a3 3 0 0 1-3-3V8a3 3 0 0 1 3-3h10a3 3 0 0 1 3 3v3.32z"/></g></svg>