<svg width="26" height="26" xmlns="http://www.w3.org/2000/svg"><path d="M19.48 0H6.5A6.53 6.53 0 0 0 0 6.52v13A6.53 6.53 0 0 0 6.5 26h13a6.53 6.53 0 0 0 6.5-6.52v-13A6.53 6.53 0 0 0 19.48 0zM14.3 16.61a2.8 2.8 0 0 1-2.3-1.15s-.56 2.14-.68 2.55a10.2 10.2 0 0 1-1.74 3.06.14.14 0 0 1-.27-.07 10.77 10.77 0 0 1 0-3.55c.18-.77 1.24-5.08 1.24-5.08a3.46 3.46 0 0 1-.31-1.46c0-1.39.82-2.42 1.85-2.42a1.27 1.27 0 0 1 1.3 1.4 19.34 19.34 0 0 1-.84 3.31 1.45 1.45 0 0 0 1.54 1.8c1.82 0 3.06-2.27 3.06-4.95 0-2-1.43-3.57-4-3.57a4.49 4.49 0 0 0-4.75 4.46 2.67 2.67 0 0 0 .6 1.83.45.45 0 0 1 .14.52c0 .16-.14.58-.2.74a.33.33 0 0 1-.48.23 3.58 3.58 0 0 1-2-3.57c0-2.64 2.31-5.82 6.87-5.82 3.68 0 6.09 2.58 6.09 5.34.06 3.68-2.02 6.4-5.12 6.4z" fill="#FFF"/></svg>