<svg width="26" height="26" xmlns="http://www.w3.org/2000/svg"><path d="M19.46 0H6.52A6.53 6.53 0 0 0 0 6.52v13A6.53 6.53 0 0 0 6.52 26h13A6.53 6.53 0 0 0 26 19.46V6.52A6.56 6.56 0 0 0 19.46 0zm0 9.73v.43A9.32 9.32 0 0 1 10 19.48 9.44 9.44 0 0 1 4.89 18h.78a6.59 6.59 0 0 0 4.12-1.4 3.32 3.32 0 0 1-3.11-2.27c.204.04.412.06.62.06.3.002.6-.038.89-.12a3.29 3.29 0 0 1-2.62-3.22c.452.257.96.398 1.48.41A3.24 3.24 0 0 1 6 7.11a9.55 9.55 0 0 0 6.85 3.43 2.75 2.75 0 0 1-.09-.75 3.29 3.29 0 0 1 3.34-3.27 3.39 3.39 0 0 1 2.44 1 6.37 6.37 0 0 0 2.1-.81 3.38 3.38 0 0 1-1.46 1.82A6.74 6.74 0 0 0 21.09 8a6.63 6.63 0 0 1-1.65 1.73h.02z" fill="#FFF"/></svg>