<svg width="20" height="24" xmlns="http://www.w3.org/2000/svg"><g fill="#EF6C00"><path d="M18.12 14.2a.31.31 0 0 1-.2 0c-.06 0-.11 0-.14.11-.03.11-.07.12-.09.12-.02 0 0 .06 0 .18v4.95A2.46 2.46 0 0 1 15.18 22H4.41a2.35 2.35 0 0 1-1.73-.72A2.35 2.35 0 0 1 2 19.59v-4.9a.45.45 0 0 0-.1-.31.48.48 0 0 0-.3-.15 2.58 2.58 0 0 0-.36-.05H.49a.45.45 0 0 0-.34.15.46.46 0 0 0-.15.34v4.9a4.27 4.27 0 0 0 1.29 3.12A4.27 4.27 0 0 0 4.41 24h10.77a4.4 4.4 0 0 0 4.41-4.41v-4.9a.45.45 0 0 0-.1-.31.43.43 0 0 0-.3-.15 2.58 2.58 0 0 0-.36-.05h-.71v.02z"/><path d="M9.11.29L.78 8.62a1 1 0 0 0 0 1.38.92.92 0 0 0 .69.3h4.41v6.85a1 1 0 0 0 1 1h5.87a1 1 0 0 0 1-1v-6.86h4.41a.92.92 0 0 0 .69-.3 1 1 0 0 0 0-1.37L10.48.29a1 1 0 0 0-1.37 0z"/></g></svg>